<?xml version="1.0" encoding="utf-8"?><svg viewBox="0 0 512 512" xmlns="http://www.w3.org/2000/svg" xmlns:xlink="http://www.w3.org/1999/xlink"><style>:root>svg{display:none}:root>svg:target{display:block}</style><svg viewBox="0 0 20 21" id="arrow" xmlns="http://www.w3.org/2000/svg"><path d="M10 11.477l4.126-4.125 1.178 1.178L10 13.833 4.697 8.53l1.179-1.178L10 11.477z"/></svg><svg viewBox="0 0 24 24" id="check" xmlns="http://www.w3.org/2000/svg"><path d="M10 15.171l9.192-9.192 1.415 1.414L10 18l-6.364-6.364 1.414-1.414 4.95 4.95z"/></svg><svg viewBox="0 0 18 19" id="facebook" xmlns="http://www.w3.org/2000/svg"><path d="M17.719 9.707c0 2.156-.703 4.055-2.11 5.695-1.406 1.618-3.152 2.59-5.238 2.918v-6.082h2.04l.386-2.531H10.37V8.055c0-.89.469-1.336 1.406-1.336h1.09V4.574c-.656-.117-1.3-.176-1.933-.176-.68 0-1.266.13-1.758.387-.469.258-.844.645-1.125 1.16-.281.516-.422 1.125-.422 1.828v1.934H5.414v2.531H7.63v6.082c-2.086-.328-3.832-1.3-5.238-2.918C.984 13.762.28 11.863.28 9.707c0-2.414.844-4.465 2.531-6.152C4.524 1.844 6.587.988 9 .988c2.414 0 4.465.856 6.152 2.567 1.711 1.687 2.567 3.738 2.567 6.152z"/></svg><svg viewBox="0 0 512 512" id="heart" xmlns="http://www.w3.org/2000/svg"><path d="M352.92 80C288 80 256 144 256 144s-32-64-96.92-64c-52.76 0-94.54 44.14-95.08 96.81-1.1 109.33 86.73 187.08 183 252.42a16 16 0 0018 0c96.26-65.34 184.09-143.09 183-252.42-.54-52.67-42.32-96.81-95.08-96.81z"/></svg><svg viewBox="0 0 17 17" id="instagram" xmlns="http://www.w3.org/2000/svg"><path d="M8.875 4.664a4.044 4.044 0 00-4.043 4.043 4.021 4.021 0 004.043 4.043 4.044 4.044 0 004.043-4.043c0-2.215-1.828-4.043-4.043-4.043zm0 6.68a2.633 2.633 0 01-2.637-2.637c0-1.441 1.16-2.602 2.637-2.602a2.596 2.596 0 012.602 2.602c0 1.477-1.16 2.637-2.602 2.637zm5.133-6.82a.945.945 0 00-.95-.95.945.945 0 00-.949.95c0 .527.422.949.95.949.527 0 .949-.422.949-.95zm2.672.949c-.07-1.266-.352-2.391-1.266-3.305C14.5 1.254 13.375.973 12.11.902c-1.3-.07-5.203-.07-6.504 0-1.265.07-2.355.352-3.304 1.266-.914.914-1.196 2.039-1.266 3.305-.07 1.3-.07 5.203 0 6.504.07 1.265.352 2.355 1.266 3.304.949.914 2.039 1.196 3.304 1.266 1.301.07 5.204.07 6.504 0 1.266-.07 2.391-.352 3.305-1.266.914-.949 1.195-2.039 1.266-3.304.07-1.301.07-5.204 0-6.504zm-1.688 7.875c-.246.703-.808 1.23-1.476 1.511-1.055.422-3.516.317-4.641.317-1.16 0-3.621.105-4.64-.317a2.666 2.666 0 01-1.512-1.511c-.422-1.02-.317-3.48-.317-4.641 0-1.125-.105-3.586.317-4.64A2.712 2.712 0 014.234 2.59c1.02-.422 3.48-.317 4.641-.317 1.125 0 3.586-.105 4.64.317.669.246 1.196.808 1.477 1.476.422 1.055.317 3.516.317 4.641 0 1.16.105 3.621-.317 4.64z"/></svg><svg viewBox="0 0 74 74" id="logo" xmlns="http://www.w3.org/2000/svg"><path d="M49.975 63.754h7.3a1 1 0 00.866-1.5c-.025-.044-2.373-4.156-2.023-7.257 2.219-.819 9.513-4.189 7.637-12.589a1 1 0 10-1.951.435c1.782 7.983-6.481 10.336-6.833 10.432a1 1 0 00-.711.74c-.615 2.664.549 5.887 1.391 7.739h-4.943c-2.382-6.377-13.359-11.021-13.844-11.223a1 1 0 00-.77 1.846c.114.047 11.411 4.828 12.915 10.628a1 1 0 00.966.749z" data-original="#000000"/><path d="M62.231 49.715a1.046 1.046 0 00.124-.008c.1-.013 10.354-1.429 9.6-13.887a11.715 11.715 0 00-4.023-8.433c-2.344-1.914-6.463-3.573-12.771-.616a1 1 0 00.85 1.81c4.308-2.02 7.9-1.9 10.655.355a9.718 9.718 0 013.293 7.005c.637 10.547-7.506 11.736-7.854 11.782a1 1 0 00.126 1.992z" data-original="#000000"/><path d="M66.377 28.5h.06a1 1 0 00.939-1.058c-.009-.142-1.071-14.412-19.68-14.656a1 1 0 10-.025 2c16.77.22 17.679 12.259 17.709 12.772a1 1 0 00.997.942z" data-original="#000000"/><path d="M50.526 18.55a.985.985 0 00.348-.063 1 1 0 00.59-1.28 11.311 11.311 0 00-6.089-5.978c-4.17-1.737-9.429-1.184-15.629 1.647a1 1 0 10.83 1.819c5.653-2.58 10.363-3.13 13.992-1.635a9.461 9.461 0 015.021 4.84 1 1 0 00.937.65z" data-original="#000000"/><path d="M13.956 29.068a.989.989 0 00.533-.154 1 1 0 00.311-1.38 8.094 8.094 0 01-1.448-6.2 7.3 7.3 0 013-4.176c10.314-7.096 17.387-.224 17.457-.158a1 1 0 001.415-1.414c-.082-.082-8.337-8.108-19.952-.117a9.306 9.306 0 00-3.866 5.4c-.574 2.437 0 5.038 1.7 7.733a1 1 0 00.85.466zM3.265 38.97a1.04 1.04 0 00.174-.015 1 1 0 00.812-1.158 14.98 14.98 0 01-.218-3.693 1 1 0 00-.923-1.071.985.985 0 00-1.071.923 16.972 16.972 0 00.241 4.188 1 1 0 00.985.826zm14.665 9.609a29.861 29.861 0 006.276-.7 1 1 0 10-.42-1.955c-7.648 1.641-12.656-.1-15.507-1.854a8.172 8.172 0 01-1.144-.85 1 1 0 00-1.317 1.5 10.229 10.229 0 001.418 1.051 20.119 20.119 0 0010.694 2.808z" data-original="#000000"/><path d="M4.855 29.03a1 1 0 00.863-.491 15.247 15.247 0 016.836-5.9 1 1 0 00-.713-1.869 17.037 17.037 0 00-7.845 6.751 1 1 0 00.86 1.509zM50.57 49.871a5.645 5.645 0 00.979-.085c3.6-.631 4.638-4.456 4.684-6.391a1 1 0 00-.976-1.023.984.984 0 00-1.024.973c0 .163-.149 3.967-3.03 4.471a4.219 4.219 0 01-3.482-1.066 3.246 3.246 0 01-1.157-3.2 1 1 0 00-1.968-.36 5.232 5.232 0 001.79 5.051 6.331 6.331 0 004.184 1.63z" data-original="#000000"/><path d="M34.61 52.62c6.923 0 9.613-4.86 9.735-5.089l4.175-7.995a6.691 6.691 0 014.747-2.715 7.658 7.658 0 015.1 2.151 1 1 0 001.428-1.4 9.714 9.714 0 00-6.592-2.747 8.629 8.629 0 00-6.286 3.513 1.057 1.057 0 00-.118.178L42.576 46.6c-.1.188-2.775 4.9-9.971 3.877-.8-.233-10.339-3.145-10.746-9.987-.047-.362-.87-6.971 6.5-10.082a6.276 6.276 0 013.8-.4c1.857.429 2.59 1.492 2.3 3.347a1 1 0 101.976.3 4.584 4.584 0 00-3.832-5.6 8.279 8.279 0 00-5.029.508c-8.827 3.725-7.726 12.044-7.713 12.128.5 8.462 11.785 11.6 12.266 11.729a.906.906 0 00.115.025 16.428 16.428 0 002.368.175z" data-original="#000000"/><path d="M33.142 30.259a1 1 0 00.35-.063 7.843 7.843 0 004.252-4.161 1 1 0 00-1.865-.721 5.809 5.809 0 01-3.083 3.008 1 1 0 00.349 1.937zm14.273-2.87a7.654 7.654 0 006.322-3.114 1 1 0 00-1.6-1.2 6.11 6.11 0 01-6.306 2.138c-5.495-2.415-4.556-7.247-4.513-7.452a1 1 0 10-1.957-.409 8.915 8.915 0 005.74 9.725.971.971 0 00.114.041 8.377 8.377 0 002.2.271z" data-original="#000000"/><path d="M45.496 33.032a.978.978 0 00.308-.05 3.754 3.754 0 002.354-2.024c.943-2.085-.129-4.691-.254-4.982a1 1 0 00-1.837.791 5 5 0 01.267 3.371 1.741 1.741 0 01-1.147.942 1 1 0 00.309 1.952zm-33.037 4.207a5.026 5.026 0 001.013-.1c3.589-.736 5.417-5.209 5.493-5.4a1 1 0 00-1.857-.745c-.014.037-1.509 3.671-4.044 4.186-1.339.272-2.837-.4-4.444-2.009a1 1 0 00-1.414 1.415c1.766 1.763 3.528 2.653 5.253 2.653zm8.717-10.564a1 1 0 00.992-.881c.452-3.778 2.96-4.157 2.985-4.161a.974.974 0 00.3-.087c3.315-1.57 5.9 1.687 5.924 1.72a1 1 0 001.58-1.225c-1.217-1.568-4.486-4.052-8.24-2.358-.8.171-3.964 1.145-4.53 5.873a1.007 1.007 0 00.994 1.119zm13.587 17.446c.12 0 .239 0 .359-.01a6.436 6.436 0 004.509-2.136 6.549 6.549 0 001.613-4.634 1 1 0 00-1.991.181 4.6 4.6 0 01-1.116 3.124 4.458 4.458 0 01-3.122 1.468 4.552 4.552 0 01-3.3-1.141 6.55 6.55 0 01-1.811-3 1 1 0 00-1.912.588 8.517 8.517 0 002.379 3.89 6.577 6.577 0 004.392 1.67z" data-original="#000000"/></svg><svg viewBox="0 0 24 24" id="quotes-left" xmlns="http://www.w3.org/2000/svg"><path fill="none" d="M0 0h24v24H0z"/><path d="M4.583 17.321C3.553 16.227 3 15 3 13.011c0-3.5 2.457-6.637 6.03-8.188l.893 1.378c-3.335 1.804-3.987 4.145-4.247 5.621.537-.278 1.24-.375 1.929-.311 1.804.167 3.226 1.648 3.226 3.489a3.5 3.5 0 01-3.5 3.5 3.871 3.871 0 01-2.748-1.179zm10 0C13.553 16.227 13 15 13 13.011c0-3.5 2.457-6.637 6.03-8.188l.893 1.378c-3.335 1.804-3.987 4.145-4.247 5.621.537-.278 1.24-.375 1.929-.311 1.804.167 3.226 1.648 3.226 3.489a3.5 3.5 0 01-3.5 3.5 3.871 3.871 0 01-2.748-1.179z"/></svg><svg viewBox="0 0 64 64" fill-rule="evenodd" clip-rule="evenodd" stroke-linejoin="round" stroke-miterlimit="2" id="quotes-modern-left" xmlns="http://www.w3.org/2000/svg"><path fill="none" d="M-640 0H640v800H-640z"/><path d="M27.194 12v8.025c-2.537.14-4.458.603-5.761 1.39-1.304.787-2.22 2.063-2.749 3.829-.528 1.766-.793 4.292-.793 7.579h9.303v19.145H8.113V33.767c0-7.518 1.612-13.025 4.836-16.522C16.174 13.748 20.922 12 27.194 12zM56 12v8.025c-2.537.14-4.457.586-5.761 1.338-1.304.751-2.247 2.028-2.828 3.829-.581 1.8-.872 4.344-.872 7.631H56v19.145H36.814V33.767c0-7.518 1.603-13.025 4.809-16.522C44.83 13.748 49.622 12 56 12z" fill-rule="nonzero"/></svg><svg viewBox="0 0 64 64" fill-rule="evenodd" clip-rule="evenodd" stroke-linejoin="round" stroke-miterlimit="2" id="quotes-modern-right" xmlns="http://www.w3.org/2000/svg"><path fill="none" d="M-1216 0H64v800h-1280z"/><path d="M36.806 51.968v-8.026c2.537-.14 4.458-.604 5.761-1.391 1.304-.786 2.22-2.063 2.749-3.829.528-1.766.793-4.293.793-7.581h-9.303V11.994h19.081v18.203c0 7.519-1.612 13.028-4.836 16.525-3.225 3.497-7.973 5.246-14.245 5.246zM8 51.968v-8.026c2.537-.14 4.457-.586 5.761-1.338 1.304-.752 2.247-2.029 2.828-3.83.581-1.801.872-4.345.872-7.633H8V11.994h19.186v18.203c0 7.519-1.603 13.028-4.809 16.525C19.17 50.219 14.378 51.968 8 51.968z" fill-rule="nonzero"/></svg><svg viewBox="0 0 24 24" id="quotes-right" xmlns="http://www.w3.org/2000/svg"><path fill="none" d="M0 0h24v24H0z"/><path d="M19.417 6.679C20.447 7.773 21 9 21 10.989c0 3.5-2.457 6.637-6.03 8.188l-.893-1.378c3.335-1.804 3.987-4.145 4.247-5.621-.537.278-1.24.375-1.929.311-1.804-.167-3.226-1.648-3.226-3.489a3.5 3.5 0 013.5-3.5c1.073 0 2.099.49 2.748 1.179zm-10 0C10.447 7.773 11 9 11 10.989c0 3.5-2.457 6.637-6.03 8.188l-.893-1.378c3.335-1.804 3.987-4.145 4.247-5.621-.537.278-1.24.375-1.929.311C4.591 12.322 3.17 10.841 3.17 9a3.5 3.5 0 013.5-3.5c1.073 0 2.099.49 2.748 1.179z"/></svg><svg viewBox="0 0 16 15" id="telegram" xmlns="http://www.w3.org/2000/svg"><path d="M15.75 2.188l-2.39 11.18c-.188.796-.622 1.007-1.301.632l-3.621-2.672-1.758 1.688c-.235.234-.48.351-.739.351l.282-3.691 6.715-6.047c.164-.164.164-.258 0-.281-.141-.047-.293-.012-.458.105L4.184 8.691.598 7.566C.199 7.45.012 7.273.035 7.04c.024-.234.27-.434.738-.598L14.73 1.027c.352-.117.633-.07.844.141.211.187.27.527.176 1.02z"/></svg><svg viewBox="0 0 20 12" id="vk" xmlns="http://www.w3.org/2000/svg"><path d="M19.16.855c-.07.352-.351.926-.844 1.723-.468.797-.902 1.5-1.3 2.11-.399.585-.61.89-.633.914-.14.21-.211.363-.211.457 0 .093.07.257.21.492l.212.246.562.562c.211.211.446.457.703.739.258.28.493.562.703.843.235.258.434.528.598.809.188.281.317.516.387.703.164.586-.07.879-.703.879h-2.075c-.163 0-.304-.023-.421-.07a1.496 1.496 0 01-.387-.246 3.019 3.019 0 01-.387-.387c-.117-.14-.293-.34-.527-.598a21.573 21.573 0 00-.703-.738c-.938-.89-1.63-1.336-2.074-1.336-.282 0-.446.082-.493.246-.046.164-.07.633-.07 1.406.023.375.035.68.035.914 0 .282-.094.493-.281.633-.188.117-.598.176-1.23.176-1.102 0-2.215-.328-3.34-.984-1.125-.657-2.11-1.594-2.954-2.813a23.071 23.071 0 01-2.003-3.2c-.516-1.077-.856-1.897-1.02-2.46C.75 1.312.668.915.668.68c0-.399.234-.598.703-.598h2.074c.258 0 .446.059.563.176.14.117.258.328.351.633.493 1.43 1.09 2.707 1.793 3.832C6.88 5.848 7.43 6.41 7.805 6.41c.14 0 .234-.047.28-.14.071-.118.106-.329.106-.633V2.578a2.819 2.819 0 00-.175-.844c-.094-.234-.188-.398-.282-.492l-.28-.351a.63.63 0 01-.106-.317c0-.094.023-.176.07-.246a.628.628 0 01.176-.176.624.624 0 01.281-.07h3.27c.375 0 .562.258.562.773v4.079c0 .398.105.597.316.597.235 0 .563-.21.985-.633.445-.492.879-1.09 1.3-1.793.422-.703.739-1.289.95-1.757l.316-.668c.164-.399.457-.598.88-.598h2.073c.563 0 .774.258.633.773z"/></svg><svg viewBox="0 0 20 15" id="youtube" xmlns="http://www.w3.org/2000/svg"><path d="M19.336 3.066c.07.282.129.633.176 1.055.07.422.117.844.14 1.266.024.398.035.773.035 1.125.024.351.036.644.036.879v.316c0 2.11-.13 3.668-.387 4.676a2.45 2.45 0 01-.633 1.055 2.437 2.437 0 01-1.09.632c-.445.117-1.289.211-2.531.282-1.242.046-2.379.082-3.41.105h-1.547c-4.008 0-6.504-.129-7.488-.387-.914-.258-1.489-.82-1.723-1.687-.117-.445-.21-1.055-.281-1.828A134.95 134.95 0 01.527 8.55v-.844c0-2.086.13-3.633.387-4.64.117-.422.328-.786.633-1.09a2.437 2.437 0 011.09-.633c.445-.117 1.289-.2 2.531-.246C6.41 1.028 7.547.98 8.578.957h1.547c4.008 0 6.504.129 7.488.387.422.117.785.328 1.09.633.305.304.516.668.633 1.09zM8.156 10.59l5.028-2.883-5.028-2.848v5.73z"/></svg></svg>